<?xml version="1.0" standalone="no"?><!DOCTYPE svg PUBLIC "-//W3C//DTD SVG 1.1//EN" "http://www.w3.org/Graphics/SVG/1.1/DTD/svg11.dtd"><svg width="200" height="200" viewBox="0 0 200 200" version="1.1" xmlns="http://www.w3.org/2000/svg" xmlns:xlink="http://www.w3.org/1999/xlink"><defs><style type="text/css"><![CDATA[
@font-face { font-family: ifont; src: url("//at.alicdn.com/t/font_1442373896_4754455.eot?#iefix") format("embedded-opentype"), url("//at.alicdn.com/t/font_1442373896_4754455.woff") format("woff"), url("//at.alicdn.com/t/font_1442373896_4754455.ttf") format("truetype"), url("//at.alicdn.com/t/font_1442373896_4754455.svg#ifont") format("svg"); }

]]></style></defs><g class="transform-group"><g transform="scale(0.1953125, 0.1953125)"><path d="M512 1017.279c-279.061 0-505.282-226.223-505.282-505.282s226.221-505.279 505.282-505.279c279.059 0 505.282 226.223 505.282 505.282s-226.223 505.279-505.282 505.279zM512 69.878c-244.169 0-442.122 197.949-442.122 442.122s197.952 442.119 442.122 442.119c244.169 0 442.119-197.949 442.119-442.119s-197.949-442.122-442.119-442.122zM556.841 512.164l133.803 133.827c12.337 12.316 12.337 32.32 0 44.653-12.333 12.337-32.337 12.337-44.653 0l-133.827-133.803-134.708 134.708c-12.439 12.437-32.587 12.437-45.005 0-12.439-12.437-12.439-32.587 0-45.007l134.708-134.727-133.806-133.806c-12.335-12.335-12.335-32.32 0-44.657 12.337-12.333 32.32-12.333 44.657 0l133.806 133.806 135.716-135.716c12.437-12.419 32.587-12.419 45.007 0 12.437 12.437 12.437 32.587 0 45.026l-135.7 135.698z" fill="#e7505a"></path></g></g></svg>