<?xml version="1.0" standalone="no"?><!DOCTYPE svg PUBLIC "-//W3C//DTD SVG 1.1//EN" "http://www.w3.org/Graphics/SVG/1.1/DTD/svg11.dtd"><svg width="200" height="200" viewBox="0 0 200 200" version="1.1" xmlns="http://www.w3.org/2000/svg" xmlns:xlink="http://www.w3.org/1999/xlink"><defs><style type="text/css"><![CDATA[
@font-face { font-family: ifont; src: url("//at.alicdn.com/t/font_1442373896_4754455.eot?#iefix") format("embedded-opentype"), url("//at.alicdn.com/t/font_1442373896_4754455.woff") format("woff"), url("//at.alicdn.com/t/font_1442373896_4754455.ttf") format("truetype"), url("//at.alicdn.com/t/font_1442373896_4754455.svg#ifont") format("svg"); }

]]></style></defs><g class="transform-group"><g transform="scale(0.1953125, 0.1953125)"><path d="M512 960c-247.039484 0-448-200.960516-448-448S264.960516 64 512 64 960 264.960516 960 512 759.039484 960 512 960zM512 128.287273c-211.584464 0-383.712727 172.128262-383.712727 383.712727 0 211.551781 172.128262 383.712727 383.712727 383.712727 211.551781 0 383.712727-172.159226 383.712727-383.712727C895.712727 300.415536 723.551781 128.287273 512 128.287273zM726.976697 393.184142c-12.54369-12.447359-32.831716-12.320065-45.248112 0.25631l-233.279613 235.839269-103.26354-106.112189c-12.352748-12.703669-32.60809-12.927295-45.248112-0.639914-12.672705 12.320065-12.959978 32.60809-0.639914 45.248112l126.016611 129.503454c0.063647 0.096331 0.192662 0.096331 0.25631 0.192662 0.063647 0.063647 0.096331 0.192662 0.159978 0.25631 2.016073 1.983389 4.512082 3.19957 6.880796 4.544765 1.247144 0.672598 2.239699 1.792447 3.519527 2.303346 3.872168 1.599785 8.000645 2.399677 12.096439 2.399677 4.06483 0 8.12794-0.799892 11.967424-2.33603 1.247144-0.512619 2.208735-1.536138 3.392232-2.176052 2.399677-1.343475 4.895686-2.528692 6.944443-4.544765 0.063647-0.063647 0.096331-0.192662 0.192662-0.25631 0.063647-0.096331 0.159978-0.127295 0.25631-0.192662l256.223626-259.008628C739.647682 425.85588 739.520387 405.600538 726.976697 393.184142z" fill="#36c6d3"></path></g></g></svg>