<?xml version="1.0" standalone="no"?><!DOCTYPE svg PUBLIC "-//W3C//DTD SVG 1.1//EN" "http://www.w3.org/Graphics/SVG/1.1/DTD/svg11.dtd"><svg width="215.625" height="200" viewBox="0 0 215.625 200" version="1.1" xmlns="http://www.w3.org/2000/svg" xmlns:xlink="http://www.w3.org/1999/xlink"><defs><style type="text/css"><![CDATA[
@font-face { font-family: ifont; src: url("//at.alicdn.com/t/font_1442373896_4754455.eot?#iefix") format("embedded-opentype"), url("//at.alicdn.com/t/font_1442373896_4754455.woff") format("woff"), url("//at.alicdn.com/t/font_1442373896_4754455.ttf") format("truetype"), url("//at.alicdn.com/t/font_1442373896_4754455.svg#ifont") format("svg"); }

]]></style></defs><g class="transform-group"><g transform="scale(0.1953125, 0.1953125)"><path d="M961.36882 1020.986159 141.0628 1020.986159C86.052407 1020.986159 41.860991 999.284955 19.791136 961.433739-2.284802 923.584045 0.400931 874.140682 27.186782 825.828372L441.077163 79.347642C468.018146 30.681784 508.080585 2.786572 550.942829 2.786572 593.809627 2.786572 633.832528 30.64658 660.849545 79.26959L1075.173356 825.904903C1101.953133 874.218735 1104.722507 923.625373 1082.605508 961.470464 1060.570629 999.320158 1016.342717 1020.986159 961.36882 1020.986159L961.36882 1020.986159 961.36882 1020.986159ZM550.983889 81.147526C537.356 81.147526 521.744981 94.743115 509.090398 117.509557L95.201538 864.066818C82.233672 887.497509 79.198158 908.542121 86.943595 921.819355 94.696637 935.062926 114.43206 942.668064 141.0628 942.668064L961.36882 942.668064C988.042141 942.668064 1007.741067 935.104244 1015.488025 921.819355 1023.192402 908.577325 1020.197948 887.538827 1007.195096 864.108136L592.877379 117.509557C580.259293 94.743115 564.570718 81.147526 550.983889 81.147526L550.983889 81.147526 550.983889 81.147526ZM551.216575 667.496359C529.729178 667.496359 512.287118 649.979586 512.287118 628.313585L512.287118 275.683934C512.287118 254.054658 529.729178 236.501161 551.216575 236.501161 572.708516 236.501161 590.150576 254.054658 590.150576 275.683934L590.150576 628.313585C590.150576 649.979586 572.708516 667.496359 551.216575 667.496359L551.216575 667.496359ZM550.938206 859.019175C584.441478 859.019175 611.601239 831.637146 611.601239 797.859701 611.601239 764.082256 584.441478 736.700227 550.938206 736.700227 517.434935 736.700227 490.275164 764.082256 490.275164 797.859701 490.275164 831.637146 517.434935 859.019175 550.938206 859.019175L550.938206 859.019175Z" fill="#F1C40F"></path></g></g></svg>